<?xml version="1.0" standalone="no"?>
<!DOCTYPE svg PUBLIC "-//W3C//DTD SVG 20010904//EN"
 "http://www.w3.org/TR/2001/REC-SVG-20010904/DTD/svg10.dtd">
<svg version="1.0" xmlns="http://www.w3.org/2000/svg"
 width="466.000000pt" height="466.000000pt" viewBox="0 0 466.000000 466.000000"
 preserveAspectRatio="xMidYMid meet">
<metadata>
Created by potrace 1.14, written by Peter Selinger 2001-2017
</metadata>
<g transform="translate(0.000000,466.000000) scale(0.100000,-0.100000)"
fill="#000000" stroke="none">
<path d="M3888 4318 c-743 -512 -1358 -944 -1346 -946 8 -2 128 -6 265 -10
l251 -7 -134 -160 c-73 -88 -138 -168 -144 -177 -10 -17 6 -18 294 -18 l304 0
216 240 217 240 -216 0 c-136 0 -215 4 -215 10 0 5 136 205 303 442 319 456
320 458 314 458 -2 0 -51 -33 -109 -72z"/>
<path d="M2812 2860 c-228 -41 -368 -238 -310 -433 19 -63 96 -138 213 -206
116 -68 145 -100 145 -159 0 -84 -76 -128 -207 -120 -45 3 -104 15 -138 27
-33 13 -67 25 -75 27 -11 4 -25 -20 -52 -88 -20 -51 -33 -97 -28 -101 4 -5 39
-20 76 -34 85 -31 258 -43 356 -23 190 37 306 158 316 329 8 139 -48 218 -233
329 -55 33 -108 70 -118 84 -40 53 -15 127 51 155 52 22 164 19 238 -6 32 -11
60 -19 61 -17 1 1 18 42 37 91 31 82 33 91 18 103 -49 38 -243 61 -350 42z"/>
<path d="M720 2851 c-94 -13 -130 -22 -130 -30 0 -5 -45 -242 -100 -529 -55
-286 -100 -525 -100 -531 0 -7 36 -11 114 -11 l114 0 6 28 c3 15 22 114 42
221 l37 194 65 -6 c118 -11 137 -41 158 -235 8 -76 17 -152 20 -169 l6 -33
119 0 c66 0 119 4 119 8 0 5 -4 33 -10 63 -5 30 -14 104 -20 164 -14 145 -33
210 -75 252 l-33 33 53 24 c120 55 189 157 190 281 0 128 -66 212 -203 256
-74 23 -271 34 -372 20z m254 -195 c46 -19 76 -61 76 -107 0 -113 -78 -177
-227 -187 -68 -4 -83 -2 -83 9 0 21 51 282 56 291 8 13 143 9 178 -6z"/>
<path d="M1525 2838 c-7 -21 -123 -649 -129 -701 -3 -26 -1 -80 4 -118 30
-209 180 -304 440 -277 196 19 321 130 389 342 25 79 151 703 151 749 0 15
-13 17 -115 17 -63 0 -115 -2 -115 -4 0 -33 -136 -701 -150 -740 -45 -118
-109 -170 -210 -170 -133 -1 -186 98 -151 280 6 27 33 168 61 314 27 146 53
277 56 293 l6 27 -117 0 c-83 0 -117 -3 -120 -12z"/>
<path d="M3412 2798 c-28 -132 -192 -1009 -192 -1028 0 -19 6 -20 114 -20
l114 0 41 214 c22 117 41 221 41 230 0 14 21 16 200 16 110 0 200 -3 200 -7 0
-5 -18 -102 -40 -218 -22 -115 -40 -216 -40 -222 0 -10 29 -13 114 -13 101 0
115 2 120 18 3 9 48 247 101 527 53 281 99 520 102 533 5 22 5 22 -114 22
l-119 0 -39 -212 -40 -213 -198 -3 c-168 -2 -197 0 -197 12 0 13 63 351 74
399 4 15 -7 17 -113 17 l-118 0 -11 -52z"/>
<path d="M1226 1420 c-113 -126 -206 -232 -206 -235 0 -3 93 -5 206 -5 178 0
205 -2 200 -15 -5 -13 -213 -317 -369 -540 -196 -280 -240 -348 -211 -328 16
11 331 231 699 488 369 257 678 476 689 485 18 18 12 18 -145 20 -90 1 -205 5
-256 8 l-92 7 120 145 c66 80 129 157 140 173 l20 27 -294 0 -295 0 -206 -230z"/>
</g>
</svg>
